# xmcd
#
# Track frame offsets:
#   150
#   11097
#   26017
#   40635
#   57045
#   68927
#   81657
#   96835
#   111370
#   126565
#   148882
#   163702
#   175447
#   190234
#   202450
#   217467
#   231637
#   243585
#   257350
#   270255
#   283495
#   297077
#
# Disc length: 4180 seconds
#
# Revision: 0
# Processed by: cddbd v1.5.1PL0 Copyright (c) Steve Scherf et al.
# Submitted via: uFREEDB 1.6.0
#
DISCID=6d105216
DTITLE=Vários - Amor
DYEAR=1998
DGENRE=Latin
TTITLE0=Solamente Una Vez
TTITLE1=Contigo Aprendi
TTITLE2=Adoro
TTITLE3=Pobre de Mi
TTITLE4=Se Te Olvida
TTITLE5=História de Un Amor
TTITLE6=Delírio
TTITLE7=Ofrenda
TTITLE8=La Barca
TTITLE9=Soñaremos Como Ayer
TTITLE10=La Gloria Eres Tu
TTITLE11=Enamorada
TTITLE12=No Se Tu
TTITLE13=Esta Tarde Vi Llover
TTITLE14=Usted
TTITLE15=Somos Novios
TTITLE16=Tu Me Acostumbraste
TTITLE17=Novia Mia
TTITLE18=Sin Ti
TTITLE19=El Reloj
TTITLE20=Rayto de Luna
TTITLE21=Recuerdos de Ypacarai
EXTD=
EXTT0=
EXTT1=
EXTT2=
EXTT3=
EXTT4=
EXTT5=
EXTT6=
EXTT7=
EXTT8=
EXTT9=
EXTT10=
EXTT11=
EXTT12=
EXTT13=
EXTT14=
EXTT15=
EXTT16=
EXTT17=
EXTT18=
EXTT19=
EXTT20=
EXTT21=
PLAYORDER=
